<svg width="354" height="59" viewBox="0 0 354 59" fill="none" xmlns="http://www.w3.org/2000/svg">
<path d="M0.406494 20.6655C0.406494 9.61982 9.3608 0.665527 20.4065 0.665527H333.511C344.557 0.665527 353.511 9.61983 353.511 20.6655V38.8141C353.511 49.8598 344.557 58.814 333.511 58.814H20.4065C9.36081 58.814 0.406494 49.8597 0.406494 38.814V20.6655Z" fill="#E8E6E6" fill-opacity="0.22"/>
<path d="M0.406494 17.5202C0.406494 8.21161 9.3889 0.665527 20.4693 0.665527H333.448C344.529 0.665527 353.511 8.21161 353.511 17.5202V41.9594C353.511 51.268 344.529 58.814 333.448 58.814H20.4693C9.38891 58.814 0.406494 51.268 0.406494 41.9594V17.5202Z" fill="#E8E6E6" fill-opacity="0.22"/>
</svg>
