<svg width="354" height="63" viewBox="0 0 354 63" fill="none" xmlns="http://www.w3.org/2000/svg">
<path d="M0.406494 20.8276C0.406494 9.78195 9.3608 0.827637 20.4065 0.827637H333.511C344.557 0.827637 353.511 9.78194 353.511 20.8276V42.3664C353.511 53.4121 344.557 62.3664 333.511 62.3664H20.4065C9.36081 62.3664 0.406494 53.4121 0.406494 42.3664V20.8276Z" fill="#E8E6E6" fill-opacity="0.22"/>
<path d="M0.406494 18.6649C0.406494 8.81367 9.3889 0.827637 20.4693 0.827637H333.448C344.529 0.827637 353.511 8.81367 353.511 18.6649V44.5291C353.511 54.3803 344.529 62.3664 333.448 62.3664H20.4693C9.38891 62.3664 0.406494 54.3803 0.406494 44.5291V18.6649Z" fill="#E8E6E6" fill-opacity="0.22"/>
</svg>
