<svg width="120" height="120" viewBox="0 0 120 120" fill="none" xmlns="http://www.w3.org/2000/svg">
<path d="M110 60C110 69.8891 107.068 79.556 101.573 87.7785C96.0794 96.0009 88.2705 102.41 79.1342 106.194C69.9979 109.978 59.9446 110.968 50.2455 109.039C40.5465 107.11 31.6374 102.348 24.6447 95.3554C17.6521 88.3627 12.89 79.4536 10.9608 69.7546C9.03149 60.0555 10.0216 50.0022 13.806 40.8659C17.5904 31.7296 23.999 23.9207 32.2214 18.4266C40.4438 12.9325 50.1108 10 59.9999 9.99999" stroke="#F2B5AA" stroke-width="20"/>
<path d="M60 10C66.5661 10 73.0679 11.2933 79.1342 13.806C85.2004 16.3188 90.7124 20.0017 95.3553 24.6447C99.9983 29.2876 103.681 34.7996 106.194 40.8658C108.707 46.9321 110 53.4339 110 60" stroke="#A82D1B" stroke-width="20" stroke-linecap="round"/>
</svg>
