<svg width="120" height="120" viewBox="0 0 120 120" fill="none" xmlns="http://www.w3.org/2000/svg">
<path d="M110 60C110 69.8891 107.068 79.556 101.573 87.7785C96.0794 96.0009 88.2705 102.41 79.1342 106.194C69.9979 109.978 59.9446 110.968 50.2455 109.039C40.5465 107.11 31.6374 102.348 24.6447 95.3554C17.6521 88.3627 12.89 79.4536 10.9608 69.7546C9.03149 60.0555 10.0216 50.0022 13.806 40.8659C17.5904 31.7296 23.999 23.9207 32.2214 18.4266C40.4438 12.9325 50.1108 10 59.9999 9.99999" stroke="#F2B5AA" stroke-width="20"/>
<path d="M60 10C69.8891 10 79.556 12.9324 87.7785 18.4265C96.001 23.9206 102.41 31.7295 106.194 40.8658C109.978 50.0021 110.969 60.0555 109.039 69.7545C107.11 79.4536 102.348 88.3627 95.3553 95.3553C88.3627 102.348 79.4536 107.11 69.7545 109.039C60.0555 110.969 50.0021 109.978 40.8658 106.194C31.7295 102.41 23.9206 96.001 18.4265 87.7785C12.9324 79.556 10 69.8891 10 60" stroke="#A82D1B" stroke-width="20" stroke-linecap="round"/>
</svg>
