<svg width="356" height="62" viewBox="0 0 356 62" fill="none" xmlns="http://www.w3.org/2000/svg">
<path d="M0.249268 20.04C0.249268 8.99435 9.20357 0.0400391 20.2493 0.0400391H335.039C346.085 0.0400391 355.04 8.99434 355.04 20.04V41.5788C355.04 52.6245 346.085 61.5788 335.04 61.5788H20.2493C9.20359 61.5788 0.249268 52.6245 0.249268 41.5788V20.04Z" fill="#E8E6E6" fill-opacity="0.22"/>
<path d="M0.249268 17.8774C0.249268 8.02608 9.27455 0.0400391 20.4078 0.0400391H334.881C346.014 0.0400391 355.04 8.02608 355.04 17.8774V43.7415C355.04 53.5927 346.014 61.5788 334.881 61.5788H20.4078C9.27455 61.5788 0.249268 53.5927 0.249268 43.7415V17.8774Z" fill="#E8E6E6" fill-opacity="0.22"/>
</svg>
