<svg width="356" height="59" viewBox="0 0 356 59" fill="none" xmlns="http://www.w3.org/2000/svg">
<path d="M0.249268 20.7043C0.249268 9.65864 9.20357 0.704346 20.2493 0.704346H335.039C346.085 0.704346 355.04 9.65865 355.04 20.7043V38.8529C355.04 49.8986 346.085 58.8529 335.04 58.8529H20.2493C9.20359 58.8529 0.249268 49.8986 0.249268 38.8529V20.7043Z" fill="#E8E6E6" fill-opacity="0.22"/>
<path d="M0.249268 17.559C0.249268 8.25043 9.27455 0.704346 20.4078 0.704346H334.881C346.014 0.704346 355.04 8.25043 355.04 17.559V41.9982C355.04 51.3068 346.014 58.8529 334.881 58.8529H20.4078C9.27455 58.8529 0.249268 51.3068 0.249268 41.9982V17.559Z" fill="#E8E6E6" fill-opacity="0.22"/>
</svg>
