<svg width="1229" height="89" viewBox="0 0 1229 89" fill="none" xmlns="http://www.w3.org/2000/svg">
<path d="M0 20C0 8.95431 8.9543 0 20 0H1209C1220.05 0 1229 8.95431 1229 20V69C1229 80.0457 1220.05 89 1209 89H20C8.95429 89 0 80.0457 0 69V20Z" fill="#A82D1B"/>
<path d="M344.933 50.065C344.933 49.015 345.098 48.085 345.428 47.275C345.788 46.465 346.223 45.745 346.733 45.115C347.273 44.485 347.843 43.9 348.443 43.36C349.043 42.82 349.598 42.31 350.108 41.83C350.648 41.32 351.083 40.795 351.413 40.255C351.773 39.715 351.953 39.115 351.953 38.455C351.953 37.375 351.503 36.505 350.603 35.845C349.733 35.185 348.563 34.855 347.093 34.855C345.683 34.855 344.423 35.155 343.313 35.755C342.203 36.325 341.288 37.135 340.568 38.185L335.123 34.99C336.323 33.16 337.988 31.705 340.118 30.625C342.248 29.515 344.828 28.96 347.858 28.96C350.108 28.96 352.088 29.29 353.798 29.95C355.508 30.58 356.843 31.51 357.803 32.74C358.793 33.97 359.288 35.485 359.288 37.285C359.288 38.455 359.108 39.49 358.748 40.39C358.388 41.29 357.923 42.07 357.353 42.73C356.783 43.39 356.168 44.005 355.508 44.575C354.878 45.145 354.278 45.7 353.708 46.24C353.138 46.78 352.658 47.35 352.268 47.95C351.908 48.55 351.728 49.255 351.728 50.065H344.933ZM348.353 61.36C347.093 61.36 346.058 60.955 345.248 60.145C344.438 59.335 344.033 58.375 344.033 57.265C344.033 56.125 344.438 55.18 345.248 54.43C346.058 53.65 347.093 53.26 348.353 53.26C349.643 53.26 350.678 53.65 351.458 54.43C352.268 55.18 352.673 56.125 352.673 57.265C352.673 58.375 352.268 59.335 351.458 60.145C350.678 60.955 349.643 61.36 348.353 61.36Z" fill="#FFE5A4"/>
<path d="M323.944 36.4299C325.864 36.4299 327.574 36.8199 329.074 37.5999C330.604 38.3499 331.804 39.5199 332.674 41.1099C333.544 42.6699 333.979 44.6799 333.979 47.1399V60.9999H326.959V48.2199C326.959 46.2699 326.524 44.8299 325.654 43.8999C324.814 42.9699 323.614 42.5049 322.054 42.5049C320.944 42.5049 319.939 42.7449 319.039 43.2249C318.169 43.6749 317.479 44.3799 316.969 45.3399C316.489 46.2999 316.249 47.5299 316.249 49.0299V60.9999H309.229V36.7899H315.934V43.4949L314.674 41.4699C315.544 39.8499 316.789 38.6049 318.409 37.7349C320.029 36.8649 321.874 36.4299 323.944 36.4299Z" fill="#FFE5A4"/>
<path d="M295.693 61V36.79H302.713V61H295.693ZM299.203 33.415C297.913 33.415 296.863 33.04 296.053 32.29C295.243 31.54 294.838 30.61 294.838 29.5C294.838 28.39 295.243 27.46 296.053 26.71C296.863 25.96 297.913 25.585 299.203 25.585C300.493 25.585 301.543 25.945 302.353 26.665C303.163 27.355 303.568 28.255 303.568 29.365C303.568 30.535 303.163 31.51 302.353 32.29C301.573 33.04 300.523 33.415 299.203 33.415Z" fill="#FFE5A4"/>
<path d="M275.57 70.0899C273.29 70.0899 271.085 69.8049 268.955 69.2349C266.855 68.6949 265.1 67.8699 263.69 66.7599L266.48 61.7199C267.5 62.5599 268.79 63.2199 270.35 63.6999C271.94 64.2099 273.5 64.4649 275.03 64.4649C277.52 64.4649 279.32 63.9099 280.43 62.7999C281.57 61.6899 282.14 60.0399 282.14 57.8499V54.2049L282.59 48.1299L282.5 42.0099V36.7899H289.16V56.9499C289.16 61.4499 287.99 64.7649 285.65 66.8949C283.31 69.0249 279.95 70.0899 275.57 70.0899ZM274.49 59.8299C272.24 59.8299 270.2 59.3499 268.37 58.3899C266.57 57.3999 265.115 56.0349 264.005 54.2949C262.925 52.5249 262.385 50.4699 262.385 48.1299C262.385 45.7599 262.925 43.7049 264.005 41.9649C265.115 40.1949 266.57 38.8299 268.37 37.8699C270.2 36.9099 272.24 36.4299 274.49 36.4299C276.53 36.4299 278.33 36.8499 279.89 37.6899C281.45 38.4999 282.665 39.7749 283.535 41.5149C284.405 43.2249 284.84 45.4299 284.84 48.1299C284.84 50.7999 284.405 53.0049 283.535 54.7449C282.665 56.4549 281.45 57.7299 279.89 58.5699C278.33 59.4099 276.53 59.8299 274.49 59.8299ZM275.885 54.0699C277.115 54.0699 278.21 53.8299 279.17 53.3499C280.13 52.8399 280.88 52.1349 281.42 51.2349C281.96 50.3349 282.23 49.2999 282.23 48.1299C282.23 46.9299 281.96 45.8949 281.42 45.0249C280.88 44.1249 280.13 43.4349 279.17 42.9549C278.21 42.4449 277.115 42.1899 275.885 42.1899C274.655 42.1899 273.56 42.4449 272.6 42.9549C271.64 43.4349 270.875 44.1249 270.305 45.0249C269.765 45.8949 269.495 46.9299 269.495 48.1299C269.495 49.2999 269.765 50.3349 270.305 51.2349C270.875 52.1349 271.64 52.8399 272.6 53.3499C273.56 53.8299 274.655 54.0699 275.885 54.0699Z" fill="#FFE5A4"/>
<path d="M246.217 61.3599C243.637 61.3599 241.342 60.8199 239.332 59.7399C237.352 58.6599 235.777 57.1899 234.607 55.3299C233.467 53.4399 232.897 51.2949 232.897 48.8949C232.897 46.4649 233.467 44.3199 234.607 42.4599C235.777 40.5699 237.352 39.0999 239.332 38.0499C241.342 36.9699 243.637 36.4299 246.217 36.4299C248.767 36.4299 251.047 36.9699 253.057 38.0499C255.067 39.0999 256.642 40.5549 257.782 42.4149C258.922 44.2749 259.492 46.4349 259.492 48.8949C259.492 51.2949 258.922 53.4399 257.782 55.3299C256.642 57.1899 255.067 58.6599 253.057 59.7399C251.047 60.8199 248.767 61.3599 246.217 61.3599ZM246.217 55.5999C247.387 55.5999 248.437 55.3299 249.367 54.7899C250.297 54.2499 251.032 53.4849 251.572 52.4949C252.112 51.4749 252.382 50.2749 252.382 48.8949C252.382 47.4849 252.112 46.2849 251.572 45.2949C251.032 44.3049 250.297 43.5399 249.367 42.9999C248.437 42.4599 247.387 42.1899 246.217 42.1899C245.047 42.1899 243.997 42.4599 243.067 42.9999C242.137 43.5399 241.387 44.3049 240.817 45.2949C240.277 46.2849 240.007 47.4849 240.007 48.8949C240.007 50.2749 240.277 51.4749 240.817 52.4949C241.387 53.4849 242.137 54.2499 243.067 54.7899C243.997 55.3299 245.047 55.5999 246.217 55.5999Z" fill="#FFE5A4"/>
<path d="M208.166 61V29.5H215.456V55.06H231.251V61H208.166Z" fill="#FFE5A4"/>
<path d="M176.96 61.3599C174.38 61.3599 172.085 60.8199 170.075 59.7399C168.095 58.6599 166.52 57.1899 165.35 55.3299C164.21 53.4399 163.64 51.2949 163.64 48.8949C163.64 46.4649 164.21 44.3199 165.35 42.4599C166.52 40.5699 168.095 39.0999 170.075 38.0499C172.085 36.9699 174.38 36.4299 176.96 36.4299C179.51 36.4299 181.79 36.9699 183.8 38.0499C185.81 39.0999 187.385 40.5549 188.525 42.4149C189.665 44.2749 190.235 46.4349 190.235 48.8949C190.235 51.2949 189.665 53.4399 188.525 55.3299C187.385 57.1899 185.81 58.6599 183.8 59.7399C181.79 60.8199 179.51 61.3599 176.96 61.3599ZM176.96 55.5999C178.13 55.5999 179.18 55.3299 180.11 54.7899C181.04 54.2499 181.775 53.4849 182.315 52.4949C182.855 51.4749 183.125 50.2749 183.125 48.8949C183.125 47.4849 182.855 46.2849 182.315 45.2949C181.775 44.3049 181.04 43.5399 180.11 42.9999C179.18 42.4599 178.13 42.1899 176.96 42.1899C175.79 42.1899 174.74 42.4599 173.81 42.9999C172.88 43.5399 172.13 44.3049 171.56 45.2949C171.02 46.2849 170.75 47.4849 170.75 48.8949C170.75 50.2749 171.02 51.4749 171.56 52.4949C172.13 53.4849 172.88 54.2499 173.81 54.7899C174.74 55.3299 175.79 55.5999 176.96 55.5999Z" fill="#FFE5A4"/>
<path d="M156.531 61.3599C153.681 61.3599 151.461 60.6399 149.871 59.1999C148.281 57.7299 147.486 55.5549 147.486 52.6749V31.4349H154.506V52.5849C154.506 53.6049 154.776 54.3999 155.316 54.9699C155.856 55.5099 156.591 55.7799 157.521 55.7799C158.631 55.7799 159.576 55.4799 160.356 54.8799L162.246 59.8299C161.526 60.3399 160.656 60.7299 159.636 60.9999C158.646 61.2399 157.611 61.3599 156.531 61.3599ZM143.751 42.7299V37.3299H160.536V42.7299H143.751Z" fill="#FFE5A4"/>
<path d="M97.2783 60.9999L88.5483 36.7899H95.1633L102.408 57.6249H99.2583L106.818 36.7899H112.758L120.093 57.6249H116.943L124.413 36.7899H130.623L121.848 60.9999H115.053L108.618 43.1349H110.688L104.028 60.9999H97.2783Z" fill="#FFE5A4"/>
<path d="M74.4352 61.3599C71.8552 61.3599 69.5602 60.8199 67.5502 59.7399C65.5702 58.6599 63.9952 57.1899 62.8252 55.3299C61.6852 53.4399 61.1152 51.2949 61.1152 48.8949C61.1152 46.4649 61.6852 44.3199 62.8252 42.4599C63.9952 40.5699 65.5702 39.0999 67.5502 38.0499C69.5602 36.9699 71.8552 36.4299 74.4352 36.4299C76.9852 36.4299 79.2652 36.9699 81.2752 38.0499C83.2852 39.0999 84.8602 40.5549 86.0002 42.4149C87.1402 44.2749 87.7102 46.4349 87.7102 48.8949C87.7102 51.2949 87.1402 53.4399 86.0002 55.3299C84.8602 57.1899 83.2852 58.6599 81.2752 59.7399C79.2652 60.8199 76.9852 61.3599 74.4352 61.3599ZM74.4352 55.5999C75.6052 55.5999 76.6552 55.3299 77.5852 54.7899C78.5152 54.2499 79.2502 53.4849 79.7902 52.4949C80.3302 51.4749 80.6002 50.2749 80.6002 48.8949C80.6002 47.4849 80.3302 46.2849 79.7902 45.2949C79.2502 44.3049 78.5152 43.5399 77.5852 42.9999C76.6552 42.4599 75.6052 42.1899 74.4352 42.1899C73.2652 42.1899 72.2152 42.4599 71.2852 42.9999C70.3552 43.5399 69.6052 44.3049 69.0352 45.2949C68.4952 46.2849 68.2252 47.4849 68.2252 48.8949C68.2252 50.2749 68.4952 51.4749 69.0352 52.4949C69.6052 53.4849 70.3552 54.2499 71.2852 54.7899C72.2152 55.3299 73.2652 55.5999 74.4352 55.5999Z" fill="#FFE5A4"/>
<path d="M48.6674 29.5H55.9574V61H48.6674V29.5ZM34.3574 61H27.0674V29.5H34.3574V61ZM49.2074 48.085H33.8174V41.92H49.2074V48.085Z" fill="#FFE5A4"/>
<path d="M1169.18 54.9131L1154.63 34.1196C1153.98 33.1917 1154.64 31.9167 1155.77 31.9167L1184.23 31.9167C1185.36 31.9167 1186.02 33.1917 1185.37 34.1196L1170.82 54.9131C1170.42 55.4818 1169.58 55.4818 1169.18 54.9131Z" fill="#FFE5A4"/>
</svg>
