<svg width="428" height="89" viewBox="0 0 428 89" fill="none" xmlns="http://www.w3.org/2000/svg">
<path d="M0.281982 20C0.281982 8.95431 9.23629 0 20.282 0H407.566C418.612 0 427.566 8.95431 427.566 20V69C427.566 80.0457 418.612 89 407.566 89H20.282C9.23628 89 0.281982 80.0457 0.281982 69V20Z" fill="#FFE5A4"/>
<path d="M0.281982 25.7971C0.281982 11.5498 11.1514 0 24.5595 0H403.289C416.697 0 427.566 11.5498 427.566 25.7971V63.2029C427.566 77.4502 416.697 89 403.289 89H24.5595C11.1514 89 0.281982 77.4502 0.281982 63.2029V25.7971Z" fill="#FFE5A4"/>
</svg>
