<svg width="363" height="43" viewBox="0 0 363 43" fill="none" xmlns="http://www.w3.org/2000/svg">
<path d="M0.724121 20.4299C0.724121 9.38423 9.67843 0.429932 20.7241 0.429932H342.276C353.322 0.429932 362.276 9.38424 362.276 20.4299V22.5581C362.276 33.6038 353.322 42.5581 342.276 42.5581H20.7241C9.67844 42.5581 0.724121 33.6037 0.724121 22.5581V20.4299Z" fill="#FFE5A4"/>
<path d="M0.724121 12.641C0.724121 5.89701 9.92142 0.429932 21.2669 0.429932H341.734C353.079 0.429932 362.276 5.89701 362.276 12.641V30.347C362.276 37.091 353.079 42.5581 341.734 42.5581H21.2669C9.92142 42.5581 0.724121 37.091 0.724121 30.347V12.641Z" fill="#FFE5A4"/>
</svg>
