<svg width="363" height="43" viewBox="0 0 363 43" fill="none" xmlns="http://www.w3.org/2000/svg">
<path d="M0.724121 20.0564C0.724121 9.01069 9.67843 0.0563965 20.7241 0.0563965H342.276C353.322 0.0563965 362.276 9.0107 362.276 20.0564V22.1845C362.276 33.2302 353.322 42.1845 342.276 42.1845H20.7241C9.67844 42.1845 0.724121 33.2302 0.724121 22.1845V20.0564Z" fill="#FFE5A4"/>
<path d="M0.724121 12.2674C0.724121 5.52347 9.92142 0.0563965 21.2669 0.0563965H341.734C353.079 0.0563965 362.276 5.52347 362.276 12.2674V29.9735C362.276 36.7174 353.079 42.1845 341.734 42.1845H21.2669C9.92142 42.1845 0.724121 36.7174 0.724121 29.9735V12.2674Z" fill="#FFE5A4"/>
</svg>
