<svg width="284" height="41" viewBox="0 0 284 41" fill="none" xmlns="http://www.w3.org/2000/svg">
<path d="M0.312012 20.3616C0.312012 9.31587 9.26632 0.361572 20.312 0.361572H263.92C274.966 0.361572 283.92 9.31588 283.92 20.3616V20.8606C283.92 31.9063 274.966 40.8606 263.92 40.8606H20.312C9.26628 40.8606 0.312012 31.9063 0.312012 20.8606V20.3616Z" fill="#FFE5A4"/>
<path d="M33.094 19.9304C29.0581 16.1492 26.0709 10.6783 21.7136 7.27241C16.7343 3.38027 10.6471 0.361572 16.4261 0.361572H267.806C273.289 0.361572 267.889 3.07903 262.935 6.68165C257.954 10.304 254.097 16.2191 249.243 20.0092L248.754 20.3911C243.899 24.1812 242.792 29.7226 248.379 32.3146C258.29 36.9127 274.065 40.8606 267.806 40.8606H16.4261C10.0518 40.8606 24.9005 36.7663 33.8403 32.0606C38.7342 29.4845 37.7059 24.2511 33.6699 20.4699L33.094 19.9304Z" fill="#FFE5A4"/>
</svg>
