<svg width="363" height="43" viewBox="0 0 363 43" fill="none" xmlns="http://www.w3.org/2000/svg">
<path d="M0.724121 20.683C0.724121 9.63728 9.67843 0.682983 20.7241 0.682983H342.276C353.322 0.682983 362.276 9.63729 362.276 20.683V22.8111C362.276 33.8568 353.322 42.8111 342.276 42.8111H20.7241C9.67844 42.8111 0.724121 33.8568 0.724121 22.8111V20.683Z" fill="#FFE5A4"/>
<path d="M0.724121 12.894C0.724121 6.15006 9.92142 0.682983 21.2669 0.682983H341.734C353.079 0.682983 362.276 6.15006 362.276 12.894V30.6001C362.276 37.344 353.079 42.8111 341.734 42.8111H21.2669C9.92142 42.8111 0.724121 37.344 0.724121 30.6001V12.894Z" fill="#FFE5A4"/>
</svg>
