<svg width="363" height="43" viewBox="0 0 363 43" fill="none" xmlns="http://www.w3.org/2000/svg">
<path d="M0.724121 20.5124C0.724121 9.46675 9.67843 0.512451 20.7241 0.512451H342.276C353.322 0.512451 362.276 9.46676 362.276 20.5125V22.6406C362.276 33.6863 353.322 42.6406 342.276 42.6406H20.7241C9.67844 42.6406 0.724121 33.6863 0.724121 22.6406V20.5124Z" fill="#FFE5A4"/>
<path d="M0.724121 12.7235C0.724121 5.97952 9.92142 0.512451 21.2669 0.512451H341.734C353.079 0.512451 362.276 5.97952 362.276 12.7235V30.4295C362.276 37.1735 353.079 42.6406 341.734 42.6406H21.2669C9.92142 42.6406 0.724121 37.1735 0.724121 30.4295V12.7235Z" fill="#FFE5A4"/>
</svg>
