<svg width="355" height="60" viewBox="0 0 355 60" fill="none" xmlns="http://www.w3.org/2000/svg">
<path d="M0.934814 20.9411C0.934814 9.89545 9.88912 0.941162 20.9348 0.941162H334.04C345.085 0.941162 354.04 9.89547 354.04 20.9412V39.0897C354.04 50.1354 345.085 59.0897 334.04 59.0897H20.9348C9.88913 59.0897 0.934814 50.1354 0.934814 39.0897V20.9411Z" fill="#E8E6E6" fill-opacity="0.22"/>
<path d="M0.934814 17.7958C0.934814 8.48724 9.91722 0.941162 20.9976 0.941162H333.977C345.057 0.941162 354.04 8.48724 354.04 17.7958V42.235C354.04 51.5436 345.057 59.0897 333.977 59.0897H20.9976C9.91723 59.0897 0.934814 51.5436 0.934814 42.235V17.7958Z" fill="#E8E6E6" fill-opacity="0.22"/>
</svg>
