<svg width="355" height="63" viewBox="0 0 355 63" fill="none" xmlns="http://www.w3.org/2000/svg">
<path d="M0.934814 20.8316C0.934814 9.78586 9.88912 0.831543 20.9348 0.831543H334.04C345.085 0.831543 354.04 9.78585 354.04 20.8315V42.3703C354.04 53.416 345.085 62.3703 334.04 62.3703H20.9348C9.88913 62.3703 0.934814 53.416 0.934814 42.3703V20.8316Z" fill="#E8E6E6" fill-opacity="0.22"/>
<path d="M0.934814 18.6689C0.934814 8.81758 9.91722 0.831543 20.9976 0.831543H333.977C345.057 0.831543 354.04 8.81758 354.04 18.6689V44.533C354.04 54.3842 345.057 62.3703 333.977 62.3703H20.9976C9.91723 62.3703 0.934814 54.3842 0.934814 44.533V18.6689Z" fill="#E8E6E6" fill-opacity="0.22"/>
</svg>
