<svg width="1229" height="89" viewBox="0 0 1229 89" fill="none" xmlns="http://www.w3.org/2000/svg">
<path d="M0 20C0 8.95431 8.9543 0 20 0H1209C1220.05 0 1229 8.95431 1229 20V69C1229 80.0457 1220.05 89 1209 89H20C8.95429 89 0 80.0457 0 69V20Z" fill="#A82D1B"/>
<path d="M785.711 37.4299C787.631 37.4299 789.326 37.8199 790.796 38.5999C792.296 39.3499 793.466 40.5199 794.306 42.1099C795.176 43.6699 795.611 45.6799 795.611 48.1399V61.9999H788.591V49.2199C788.591 47.2699 788.186 45.8299 787.376 44.8999C786.566 43.9699 785.426 43.5049 783.956 43.5049C782.936 43.5049 782.021 43.7449 781.211 44.2249C780.401 44.6749 779.771 45.3649 779.321 46.2949C778.871 47.2249 778.646 48.4099 778.646 49.8499V61.9999H771.626V49.2199C771.626 47.2699 771.221 45.8299 770.411 44.8999C769.631 43.9699 768.506 43.5049 767.036 43.5049C766.016 43.5049 765.101 43.7449 764.291 44.2249C763.481 44.6749 762.851 45.3649 762.401 46.2949C761.951 47.2249 761.726 48.4099 761.726 49.8499V61.9999H754.706V37.7899H761.411V44.4049L760.151 42.4699C760.991 40.8199 762.176 39.5749 763.706 38.7349C765.266 37.8649 767.036 37.4299 769.016 37.4299C771.236 37.4299 773.171 37.9999 774.821 39.1399C776.501 40.2499 777.611 41.9599 778.151 44.2699L775.676 43.5949C776.486 41.7049 777.776 40.2049 779.546 39.0949C781.346 37.9849 783.401 37.4299 785.711 37.4299Z" fill="#FFE5A4"/>
<path d="M735.458 61.9999V37.7899H742.163V44.6299L741.218 42.6499C741.938 40.9399 743.093 39.6499 744.683 38.7799C746.273 37.8799 748.208 37.4299 750.488 37.4299V43.9099C750.188 43.8799 749.918 43.8649 749.678 43.8649C749.438 43.8349 749.183 43.8199 748.913 43.8199C746.993 43.8199 745.433 44.3749 744.233 45.4849C743.063 46.5649 742.478 48.2599 742.478 50.5699V61.9999H735.458Z" fill="#FFE5A4"/>
<path d="M717.491 62.3599C714.911 62.3599 712.616 61.8199 710.606 60.7399C708.626 59.6599 707.051 58.1899 705.881 56.3299C704.741 54.4399 704.171 52.2949 704.171 49.8949C704.171 47.4649 704.741 45.3199 705.881 43.4599C707.051 41.5699 708.626 40.0999 710.606 39.0499C712.616 37.9699 714.911 37.4299 717.491 37.4299C720.041 37.4299 722.321 37.9699 724.331 39.0499C726.341 40.0999 727.916 41.5549 729.056 43.4149C730.196 45.2749 730.766 47.4349 730.766 49.8949C730.766 52.2949 730.196 54.4399 729.056 56.3299C727.916 58.1899 726.341 59.6599 724.331 60.7399C722.321 61.8199 720.041 62.3599 717.491 62.3599ZM717.491 56.5999C718.661 56.5999 719.711 56.3299 720.641 55.7899C721.571 55.2499 722.306 54.4849 722.846 53.4949C723.386 52.4749 723.656 51.2749 723.656 49.8949C723.656 48.4849 723.386 47.2849 722.846 46.2949C722.306 45.3049 721.571 44.5399 720.641 43.9999C719.711 43.4599 718.661 43.1899 717.491 43.1899C716.321 43.1899 715.271 43.4599 714.341 43.9999C713.411 44.5399 712.661 45.3049 712.091 46.2949C711.551 47.2849 711.281 48.4849 711.281 49.8949C711.281 51.2749 711.551 52.4749 712.091 53.4949C712.661 54.4849 713.411 55.2499 714.341 55.7899C715.271 56.3299 716.321 56.5999 717.491 56.5999Z" fill="#FFE5A4"/>
<path d="M689.731 62V37.25C689.731 34.52 690.541 32.345 692.161 30.725C693.781 29.075 696.091 28.25 699.091 28.25C700.111 28.25 701.086 28.355 702.016 28.565C702.976 28.775 703.786 29.105 704.446 29.555L702.601 34.64C702.211 34.37 701.776 34.16 701.296 34.01C700.816 33.86 700.306 33.785 699.766 33.785C698.746 33.785 697.951 34.085 697.381 34.685C696.841 35.255 696.571 36.125 696.571 37.295V39.545L696.751 42.56V62H689.731ZM685.996 43.73V38.33H702.781V43.73H685.996Z" fill="#FFE5A4"/>
<path d="M659.734 37.4299C661.654 37.4299 663.364 37.8199 664.864 38.5999C666.394 39.3499 667.594 40.5199 668.464 42.1099C669.334 43.6699 669.769 45.6799 669.769 48.1399V61.9999H662.749V49.2199C662.749 47.2699 662.314 45.8299 661.444 44.8999C660.604 43.9699 659.404 43.5049 657.844 43.5049C656.734 43.5049 655.729 43.7449 654.829 44.2249C653.959 44.6749 653.269 45.3799 652.759 46.3399C652.279 47.2999 652.039 48.5299 652.039 50.0299V61.9999H645.019V37.7899H651.724V44.4949L650.464 42.4699C651.334 40.8499 652.579 39.6049 654.199 38.7349C655.819 37.8649 657.664 37.4299 659.734 37.4299Z" fill="#FFE5A4"/>
<path d="M627.051 62.3599C624.471 62.3599 622.176 61.8199 620.166 60.7399C618.186 59.6599 616.611 58.1899 615.441 56.3299C614.301 54.4399 613.731 52.2949 613.731 49.8949C613.731 47.4649 614.301 45.3199 615.441 43.4599C616.611 41.5699 618.186 40.0999 620.166 39.0499C622.176 37.9699 624.471 37.4299 627.051 37.4299C629.601 37.4299 631.881 37.9699 633.891 39.0499C635.901 40.0999 637.476 41.5549 638.616 43.4149C639.756 45.2749 640.326 47.4349 640.326 49.8949C640.326 52.2949 639.756 54.4399 638.616 56.3299C637.476 58.1899 635.901 59.6599 633.891 60.7399C631.881 61.8199 629.601 62.3599 627.051 62.3599ZM627.051 56.5999C628.221 56.5999 629.271 56.3299 630.201 55.7899C631.131 55.2499 631.866 54.4849 632.406 53.4949C632.946 52.4749 633.216 51.2749 633.216 49.8949C633.216 48.4849 632.946 47.2849 632.406 46.2949C631.866 45.3049 631.131 44.5399 630.201 43.9999C629.271 43.4599 628.221 43.1899 627.051 43.1899C625.881 43.1899 624.831 43.4599 623.901 43.9999C622.971 44.5399 622.221 45.3049 621.651 46.2949C621.111 47.2849 620.841 48.4849 620.841 49.8949C620.841 51.2749 621.111 52.4749 621.651 53.4949C622.221 54.4849 622.971 55.2499 623.901 55.7899C624.831 56.3299 625.881 56.5999 627.051 56.5999Z" fill="#FFE5A4"/>
<path d="M601.996 62V37.79H609.016V62H601.996ZM605.506 34.415C604.216 34.415 603.166 34.04 602.356 33.29C601.546 32.54 601.141 31.61 601.141 30.5C601.141 29.39 601.546 28.46 602.356 27.71C603.166 26.96 604.216 26.585 605.506 26.585C606.796 26.585 607.846 26.945 608.656 27.665C609.466 28.355 609.871 29.255 609.871 30.365C609.871 31.535 609.466 32.51 608.656 33.29C607.876 34.04 606.826 34.415 605.506 34.415Z" fill="#FFE5A4"/>
<path d="M592.341 62.3599C589.491 62.3599 587.271 61.6399 585.681 60.1999C584.091 58.7299 583.296 56.5549 583.296 53.6749V32.4349H590.316V53.5849C590.316 54.6049 590.586 55.3999 591.126 55.9699C591.666 56.5099 592.401 56.7799 593.331 56.7799C594.441 56.7799 595.386 56.4799 596.166 55.8799L598.056 60.8299C597.336 61.3399 596.466 61.7299 595.446 61.9999C594.456 62.2399 593.421 62.3599 592.341 62.3599ZM579.561 43.7299V38.3299H596.346V43.7299H579.561Z" fill="#FFE5A4"/>
<path d="M569.517 61.9999V57.2749L569.067 56.2399V47.7799C569.067 46.2799 568.602 45.1099 567.672 44.2699C566.772 43.4299 565.377 43.0099 563.487 43.0099C562.197 43.0099 560.922 43.2199 559.662 43.6399C558.432 44.0299 557.382 44.5699 556.512 45.2599L553.992 40.3549C555.312 39.4249 556.902 38.7049 558.762 38.1949C560.622 37.6849 562.512 37.4299 564.432 37.4299C568.122 37.4299 570.987 38.2999 573.027 40.0399C575.067 41.7799 576.087 44.4949 576.087 48.1849V61.9999H569.517ZM562.137 62.3599C560.247 62.3599 558.627 62.0449 557.277 61.4149C555.927 60.7549 554.892 59.8699 554.172 58.7599C553.452 57.6499 553.092 56.4049 553.092 55.0249C553.092 53.5849 553.437 52.3249 554.127 51.2449C554.847 50.1649 555.972 49.3249 557.502 48.7249C559.032 48.0949 561.027 47.7799 563.487 47.7799H569.922V51.8749H564.252C562.602 51.8749 561.462 52.1449 560.832 52.6849C560.232 53.2249 559.932 53.8999 559.932 54.7099C559.932 55.6099 560.277 56.3299 560.967 56.8699C561.687 57.3799 562.662 57.6349 563.892 57.6349C565.062 57.6349 566.112 57.3649 567.042 56.8249C567.972 56.2549 568.647 55.4299 569.067 54.3499L570.147 57.5899C569.637 59.1499 568.707 60.3349 567.357 61.1449C566.007 61.9549 564.267 62.3599 562.137 62.3599Z" fill="#FFE5A4"/>
<path d="M537.045 61.9999V37.7899H543.75V44.6299L542.805 42.6499C543.525 40.9399 544.68 39.6499 546.27 38.7799C547.86 37.8799 549.795 37.4299 552.075 37.4299V43.9099C551.775 43.8799 551.505 43.8649 551.265 43.8649C551.025 43.8349 550.77 43.8199 550.5 43.8199C548.58 43.8199 547.02 44.3749 545.82 45.4849C544.65 46.5649 544.065 48.2599 544.065 50.5699V61.9999H537.045Z" fill="#FFE5A4"/>
<path d="M527.389 62.3599C524.539 62.3599 522.319 61.6399 520.729 60.1999C519.139 58.7299 518.344 56.5549 518.344 53.6749V32.4349H525.364V53.5849C525.364 54.6049 525.634 55.3999 526.174 55.9699C526.714 56.5099 527.449 56.7799 528.379 56.7799C529.489 56.7799 530.434 56.4799 531.214 55.8799L533.104 60.8299C532.384 61.3399 531.514 61.7299 530.494 61.9999C529.504 62.2399 528.469 62.3599 527.389 62.3599ZM514.609 43.7299V38.3299H531.394V43.7299H514.609Z" fill="#FFE5A4"/>
<path d="M501.728 62.3599C499.658 62.3599 497.663 62.1199 495.743 61.6399C493.853 61.1299 492.353 60.4999 491.243 59.7499L493.583 54.7099C494.693 55.3999 495.998 55.9699 497.498 56.4199C499.028 56.8399 500.528 57.0499 501.998 57.0499C503.618 57.0499 504.758 56.8549 505.418 56.4649C506.108 56.0749 506.453 55.5349 506.453 54.8449C506.453 54.2749 506.183 53.8549 505.643 53.5849C505.133 53.2849 504.443 53.0599 503.573 52.9099C502.703 52.7599 501.743 52.6099 500.693 52.4599C499.673 52.3099 498.638 52.1149 497.588 51.8749C496.538 51.6049 495.578 51.2149 494.708 50.7049C493.838 50.1949 493.133 49.5049 492.593 48.6349C492.083 47.7649 491.828 46.6399 491.828 45.2599C491.828 43.7299 492.263 42.3799 493.133 41.2099C494.033 40.0399 495.323 39.1249 497.003 38.4649C498.683 37.7749 500.693 37.4299 503.033 37.4299C504.683 37.4299 506.363 37.6099 508.073 37.9699C509.783 38.3299 511.208 38.8549 512.348 39.5449L510.008 44.5399C508.838 43.8499 507.653 43.3849 506.453 43.1449C505.283 42.8749 504.143 42.7399 503.033 42.7399C501.473 42.7399 500.333 42.9499 499.613 43.3699C498.893 43.7899 498.533 44.3299 498.533 44.9899C498.533 45.5899 498.788 46.0399 499.298 46.3399C499.838 46.6399 500.543 46.8799 501.413 47.0599C502.283 47.2399 503.228 47.4049 504.248 47.5549C505.298 47.6749 506.348 47.8699 507.398 48.1399C508.448 48.4099 509.393 48.7999 510.233 49.3099C511.103 49.7899 511.808 50.4649 512.348 51.3349C512.888 52.1749 513.158 53.2849 513.158 54.6649C513.158 56.1649 512.708 57.4999 511.808 58.6699C510.908 59.8099 509.603 60.7099 507.893 61.3699C506.213 62.0299 504.158 62.3599 501.728 62.3599Z" fill="#FFE5A4"/>
<path d="M480.048 62V37.79H487.068V62H480.048ZM483.558 34.415C482.268 34.415 481.218 34.04 480.408 33.29C479.598 32.54 479.193 31.61 479.193 30.5C479.193 29.39 479.598 28.46 480.408 27.71C481.218 26.96 482.268 26.585 483.558 26.585C484.848 26.585 485.898 26.945 486.708 27.665C487.518 28.355 487.923 29.255 487.923 30.365C487.923 31.535 487.518 32.51 486.708 33.29C485.928 34.04 484.878 34.415 483.558 34.415Z" fill="#FFE5A4"/>
<path d="M459.924 71.0899C457.644 71.0899 455.439 70.8049 453.309 70.2349C451.209 69.6949 449.454 68.8699 448.044 67.7599L450.834 62.7199C451.854 63.5599 453.144 64.2199 454.704 64.6999C456.294 65.2099 457.854 65.4649 459.384 65.4649C461.874 65.4649 463.674 64.9099 464.784 63.7999C465.924 62.6899 466.494 61.0399 466.494 58.8499V55.2049L466.944 49.1299L466.854 43.0099V37.7899H473.514V57.9499C473.514 62.4499 472.344 65.7649 470.004 67.8949C467.664 70.0249 464.304 71.0899 459.924 71.0899ZM458.844 60.8299C456.594 60.8299 454.554 60.3499 452.724 59.3899C450.924 58.3999 449.469 57.0349 448.359 55.2949C447.279 53.5249 446.739 51.4699 446.739 49.1299C446.739 46.7599 447.279 44.7049 448.359 42.9649C449.469 41.1949 450.924 39.8299 452.724 38.8699C454.554 37.9099 456.594 37.4299 458.844 37.4299C460.884 37.4299 462.684 37.8499 464.244 38.6899C465.804 39.4999 467.019 40.7749 467.889 42.5149C468.759 44.2249 469.194 46.4299 469.194 49.1299C469.194 51.7999 468.759 54.0049 467.889 55.7449C467.019 57.4549 465.804 58.7299 464.244 59.5699C462.684 60.4099 460.884 60.8299 458.844 60.8299ZM460.239 55.0699C461.469 55.0699 462.564 54.8299 463.524 54.3499C464.484 53.8399 465.234 53.1349 465.774 52.2349C466.314 51.3349 466.584 50.2999 466.584 49.1299C466.584 47.9299 466.314 46.8949 465.774 46.0249C465.234 45.1249 464.484 44.4349 463.524 43.9549C462.564 43.4449 461.469 43.1899 460.239 43.1899C459.009 43.1899 457.914 43.4449 456.954 43.9549C455.994 44.4349 455.229 45.1249 454.659 46.0249C454.119 46.8949 453.849 47.9299 453.849 49.1299C453.849 50.2999 454.119 51.3349 454.659 52.2349C455.229 53.1349 455.994 53.8399 456.954 54.3499C457.914 54.8299 459.009 55.0699 460.239 55.0699Z" fill="#FFE5A4"/>
<path d="M432.166 62.3599C429.406 62.3599 426.976 61.8199 424.876 60.7399C422.806 59.6599 421.201 58.1899 420.061 56.3299C418.921 54.4399 418.351 52.2949 418.351 49.8949C418.351 47.4649 418.906 45.3199 420.016 43.4599C421.156 41.5699 422.701 40.0999 424.651 39.0499C426.601 37.9699 428.806 37.4299 431.266 37.4299C433.636 37.4299 435.766 37.9399 437.656 38.9599C439.576 39.9499 441.091 41.3899 442.201 43.2799C443.311 45.1399 443.866 47.3749 443.866 49.9849C443.866 50.2549 443.851 50.5699 443.821 50.9299C443.791 51.2599 443.761 51.5749 443.731 51.8749H424.066V47.7799H440.041L437.341 48.9949C437.341 47.7349 437.086 46.6399 436.576 45.7099C436.066 44.7799 435.361 44.0599 434.461 43.5499C433.561 43.0099 432.511 42.7399 431.311 42.7399C430.111 42.7399 429.046 43.0099 428.116 43.5499C427.216 44.0599 426.511 44.7949 426.001 45.7549C425.491 46.6849 425.236 47.7949 425.236 49.0849V50.1649C425.236 51.4849 425.521 52.6549 426.091 53.6749C426.691 54.6649 427.516 55.4299 428.566 55.9699C429.646 56.4799 430.906 56.7349 432.346 56.7349C433.636 56.7349 434.761 56.5399 435.721 56.1499C436.711 55.7599 437.611 55.1749 438.421 54.3949L442.156 58.4449C441.046 59.7049 439.651 60.6799 437.971 61.3699C436.291 62.0299 434.356 62.3599 432.166 62.3599Z" fill="#FFE5A4"/>
<path d="M387.555 62V30.5H401.19C404.01 30.5 406.44 30.965 408.48 31.895C410.52 32.795 412.095 34.1 413.205 35.81C414.315 37.52 414.87 39.56 414.87 41.93C414.87 44.27 414.315 46.295 413.205 48.005C412.095 49.685 410.52 50.975 408.48 51.875C406.44 52.775 404.01 53.225 401.19 53.225H391.605L394.845 50.03V62H387.555ZM407.58 62L399.705 50.57H407.49L415.455 62H407.58ZM394.845 50.84L391.605 47.42H400.785C403.035 47.42 404.715 46.94 405.825 45.98C406.935 44.99 407.49 43.64 407.49 41.93C407.49 40.19 406.935 38.84 405.825 37.88C404.715 36.92 403.035 36.44 400.785 36.44H391.605L394.845 32.975V50.84Z" fill="#FFE5A4"/>
<path d="M364.66 62.3599C361.81 62.3599 359.59 61.6399 358 60.1999C356.41 58.7299 355.615 56.5549 355.615 53.6749V32.4349H362.635V53.5849C362.635 54.6049 362.905 55.3999 363.445 55.9699C363.985 56.5099 364.72 56.7799 365.65 56.7799C366.76 56.7799 367.705 56.4799 368.485 55.8799L370.375 60.8299C369.655 61.3399 368.785 61.7299 367.765 61.9999C366.775 62.2399 365.74 62.3599 364.66 62.3599ZM351.88 43.7299V38.3299H368.665V43.7299H351.88Z" fill="#FFE5A4"/>
<path d="M338.361 37.4299C340.281 37.4299 341.991 37.8199 343.491 38.5999C345.021 39.3499 346.221 40.5199 347.091 42.1099C347.961 43.6699 348.396 45.6799 348.396 48.1399V61.9999H341.376V49.2199C341.376 47.2699 340.942 45.8299 340.072 44.8999C339.232 43.9699 338.031 43.5049 336.471 43.5049C335.361 43.5049 334.356 43.7449 333.456 44.2249C332.586 44.6749 331.897 45.3799 331.387 46.3399C330.907 47.2999 330.667 48.5299 330.667 50.0299V61.9999H323.646V37.7899H330.352V44.4949L329.091 42.4699C329.961 40.8499 331.207 39.6049 332.827 38.7349C334.447 37.8649 336.291 37.4299 338.361 37.4299Z" fill="#FFE5A4"/>
<path d="M310.111 62V37.79H317.131V62H310.111ZM313.621 34.415C312.331 34.415 311.281 34.04 310.471 33.29C309.661 32.54 309.256 31.61 309.256 30.5C309.256 29.39 309.661 28.46 310.471 27.71C311.281 26.96 312.331 26.585 313.621 26.585C314.911 26.585 315.961 26.945 316.771 27.665C317.581 28.355 317.986 29.255 317.986 30.365C317.986 31.535 317.581 32.51 316.771 33.29C315.991 34.04 314.941 34.415 313.621 34.415Z" fill="#FFE5A4"/>
<path d="M290.863 61.9999V37.7899H297.568V44.6299L296.623 42.6499C297.343 40.9399 298.498 39.6499 300.088 38.7799C301.678 37.8799 303.613 37.4299 305.893 37.4299V43.9099C305.593 43.8799 305.323 43.8649 305.083 43.8649C304.843 43.8349 304.588 43.8199 304.318 43.8199C302.398 43.8199 300.838 44.3749 299.638 45.4849C298.468 46.5649 297.883 48.2599 297.883 50.5699V61.9999H290.863Z" fill="#FFE5A4"/>
<path d="M274.104 62.3599C272.064 62.3599 270.279 61.9099 268.749 61.0099C267.219 60.1099 266.019 58.7449 265.149 56.9149C264.309 55.0549 263.889 52.7149 263.889 49.8949C263.889 47.0449 264.294 44.7049 265.104 42.8749C265.914 41.0449 267.084 39.6799 268.614 38.7799C270.144 37.8799 271.974 37.4299 274.104 37.4299C276.384 37.4299 278.424 37.9549 280.224 39.0049C282.054 40.0249 283.494 41.4649 284.544 43.3249C285.624 45.1849 286.164 47.3749 286.164 49.8949C286.164 52.4449 285.624 54.6499 284.544 56.5099C283.494 58.3699 282.054 59.8099 280.224 60.8299C278.424 61.8499 276.384 62.3599 274.104 62.3599ZM259.794 70.7299V37.7899H266.499V42.7399L266.364 49.9399L266.814 57.0949V70.7299H259.794ZM272.889 56.5999C274.059 56.5999 275.094 56.3299 275.994 55.7899C276.924 55.2499 277.659 54.4849 278.199 53.4949C278.769 52.4749 279.054 51.2749 279.054 49.8949C279.054 48.4849 278.769 47.2849 278.199 46.2949C277.659 45.3049 276.924 44.5399 275.994 43.9999C275.094 43.4599 274.059 43.1899 272.889 43.1899C271.719 43.1899 270.669 43.4599 269.739 43.9999C268.809 44.5399 268.074 45.3049 267.534 46.2949C266.994 47.2849 266.724 48.4849 266.724 49.8949C266.724 51.2749 266.994 52.4749 267.534 53.4949C268.074 54.4849 268.809 55.2499 269.739 55.7899C270.669 56.3299 271.719 56.5999 272.889 56.5999Z" fill="#FFE5A4"/>
<path d="M229.083 62.3599C226.503 62.3599 224.208 61.8199 222.198 60.7399C220.218 59.6599 218.643 58.1899 217.473 56.3299C216.333 54.4399 215.763 52.2949 215.763 49.8949C215.763 47.4649 216.333 45.3199 217.473 43.4599C218.643 41.5699 220.218 40.0999 222.198 39.0499C224.208 37.9699 226.503 37.4299 229.083 37.4299C231.633 37.4299 233.913 37.9699 235.923 39.0499C237.933 40.0999 239.508 41.5549 240.648 43.4149C241.788 45.2749 242.358 47.4349 242.358 49.8949C242.358 52.2949 241.788 54.4399 240.648 56.3299C239.508 58.1899 237.933 59.6599 235.923 60.7399C233.913 61.8199 231.633 62.3599 229.083 62.3599ZM229.083 56.5999C230.253 56.5999 231.303 56.3299 232.233 55.7899C233.163 55.2499 233.898 54.4849 234.438 53.4949C234.978 52.4749 235.248 51.2749 235.248 49.8949C235.248 48.4849 234.978 47.2849 234.438 46.2949C233.898 45.3049 233.163 44.5399 232.233 43.9999C231.303 43.4599 230.253 43.1899 229.083 43.1899C227.913 43.1899 226.863 43.4599 225.933 43.9999C225.003 44.5399 224.253 45.3049 223.683 46.2949C223.143 47.2849 222.873 48.4849 222.873 49.8949C222.873 51.2749 223.143 52.4749 223.683 53.4949C224.253 54.4849 225.003 55.2499 225.933 55.7899C226.863 56.3299 227.913 56.5999 229.083 56.5999Z" fill="#FFE5A4"/>
<path d="M208.654 62.3599C205.804 62.3599 203.584 61.6399 201.994 60.1999C200.404 58.7299 199.609 56.5549 199.609 53.6749V32.4349H206.629V53.5849C206.629 54.6049 206.899 55.3999 207.439 55.9699C207.979 56.5099 208.714 56.7799 209.644 56.7799C210.754 56.7799 211.699 56.4799 212.479 55.8799L214.369 60.8299C213.649 61.3399 212.779 61.7299 211.759 61.9999C210.769 62.2399 209.734 62.3599 208.654 62.3599ZM195.874 43.7299V38.3299H212.659V43.7299H195.874Z" fill="#FFE5A4"/>
<path d="M169.636 62.3599C166.876 62.3599 164.446 61.8199 162.346 60.7399C160.276 59.6599 158.671 58.1899 157.531 56.3299C156.391 54.4399 155.821 52.2949 155.821 49.8949C155.821 47.4649 156.376 45.3199 157.486 43.4599C158.626 41.5699 160.171 40.0999 162.121 39.0499C164.071 37.9699 166.276 37.4299 168.736 37.4299C171.106 37.4299 173.236 37.9399 175.126 38.9599C177.046 39.9499 178.561 41.3899 179.671 43.2799C180.781 45.1399 181.336 47.3749 181.336 49.9849C181.336 50.2549 181.321 50.5699 181.291 50.9299C181.261 51.2599 181.231 51.5749 181.201 51.8749H161.536V47.7799H177.511L174.811 48.9949C174.811 47.7349 174.556 46.6399 174.046 45.7099C173.536 44.7799 172.831 44.0599 171.931 43.5499C171.031 43.0099 169.981 42.7399 168.781 42.7399C167.581 42.7399 166.516 43.0099 165.586 43.5499C164.686 44.0599 163.981 44.7949 163.471 45.7549C162.961 46.6849 162.706 47.7949 162.706 49.0849V50.1649C162.706 51.4849 162.991 52.6549 163.561 53.6749C164.161 54.6649 164.986 55.4299 166.036 55.9699C167.116 56.4799 168.376 56.7349 169.816 56.7349C171.106 56.7349 172.231 56.5399 173.191 56.1499C174.181 55.7599 175.081 55.1749 175.891 54.3949L179.626 58.4449C178.516 59.7049 177.121 60.6799 175.441 61.3699C173.761 62.0299 171.826 62.3599 169.636 62.3599Z" fill="#FFE5A4"/>
<path d="M138.593 61.9999V37.7899H145.298V44.6299L144.353 42.6499C145.073 40.9399 146.228 39.6499 147.818 38.7799C149.408 37.8799 151.343 37.4299 153.623 37.4299V43.9099C153.323 43.8799 153.053 43.8649 152.813 43.8649C152.573 43.8349 152.318 43.8199 152.048 43.8199C150.128 43.8199 148.568 44.3749 147.368 45.4849C146.198 46.5649 145.613 48.2599 145.613 50.5699V61.9999H138.593Z" fill="#FFE5A4"/>
<path d="M122.219 62.3599C119.459 62.3599 117.029 61.8199 114.929 60.7399C112.859 59.6599 111.254 58.1899 110.114 56.3299C108.974 54.4399 108.404 52.2949 108.404 49.8949C108.404 47.4649 108.959 45.3199 110.069 43.4599C111.209 41.5699 112.754 40.0999 114.704 39.0499C116.654 37.9699 118.859 37.4299 121.319 37.4299C123.689 37.4299 125.819 37.9399 127.709 38.9599C129.629 39.9499 131.144 41.3899 132.254 43.2799C133.364 45.1399 133.919 47.3749 133.919 49.9849C133.919 50.2549 133.904 50.5699 133.874 50.9299C133.844 51.2599 133.814 51.5749 133.784 51.8749H114.119V47.7799H130.094L127.394 48.9949C127.394 47.7349 127.139 46.6399 126.629 45.7099C126.119 44.7799 125.414 44.0599 124.514 43.5499C123.614 43.0099 122.564 42.7399 121.364 42.7399C120.164 42.7399 119.099 43.0099 118.169 43.5499C117.269 44.0599 116.564 44.7949 116.054 45.7549C115.544 46.6849 115.289 47.7949 115.289 49.0849V50.1649C115.289 51.4849 115.574 52.6549 116.144 53.6749C116.744 54.6649 117.569 55.4299 118.619 55.9699C119.699 56.4799 120.959 56.7349 122.399 56.7349C123.689 56.7349 124.814 56.5399 125.774 56.1499C126.764 55.7599 127.664 55.1749 128.474 54.3949L132.209 58.4449C131.099 59.7049 129.704 60.6799 128.024 61.3699C126.344 62.0299 124.409 62.3599 122.219 62.3599Z" fill="#FFE5A4"/>
<path d="M93.63 37.4299C95.55 37.4299 97.26 37.8199 98.76 38.5999C100.29 39.3499 101.49 40.5199 102.36 42.1099C103.23 43.6699 103.665 45.6799 103.665 48.1399V61.9999H96.645V49.2199C96.645 47.2699 96.21 45.8299 95.34 44.8999C94.5 43.9699 93.3 43.5049 91.74 43.5049C90.63 43.5049 89.625 43.7449 88.725 44.2249C87.855 44.6749 87.165 45.3799 86.655 46.3399C86.175 47.2999 85.935 48.5299 85.935 50.0299V61.9999H78.915V28.6099H85.935V44.4949L84.36 42.4699C85.23 40.8499 86.475 39.6049 88.095 38.7349C89.715 37.8649 91.56 37.4299 93.63 37.4299Z" fill="#FFE5A4"/>
<path d="M34.6312 62L24.3262 30.5H31.8862L40.8412 58.4H37.0612L46.4212 30.5H53.1712L62.1712 58.4H58.5262L67.7062 30.5H74.6812L64.3762 62H56.5462L48.5812 37.52H50.6512L42.4612 62H34.6312Z" fill="#FFE5A4"/>
<path d="M1169.18 54.9131L1154.63 34.1196C1153.98 33.1917 1154.64 31.9167 1155.77 31.9167L1184.23 31.9167C1185.36 31.9167 1186.02 33.1917 1185.37 34.1196L1170.82 54.9131C1170.42 55.4818 1169.58 55.4818 1169.18 54.9131Z" fill="#FFE5A4"/>
</svg>
